<?xml version="1.0" encoding="iso-8859-1"?>
<!-- Uploaded to: SVG Repo, www.svgrepo.com, Generator: SVG Repo Mixer Tools -->
<svg fill="#000000" height="800px" width="800px" version="1.1" id="Layer_1" xmlns="http://www.w3.org/2000/svg" xmlns:xlink="http://www.w3.org/1999/xlink" 
	 viewBox="0 0 497.072 497.072" xml:space="preserve">
<g>
	<g>
		<g>
			<path d="M480.536,433.072v-224h-16v-32h16v-16h-112v16h16v16h-32V73.608l12.232,6.528l7.528-14.128L248.536,0L124.768,66.008
				l7.528,14.128l12.24-6.528v119.464h-32v-16h16v-16h-112v16h16v32h-16v224h-16v64h496v-64H480.536z M400.536,177.072h48v32h-16
				v-16h-32V177.072z M464.536,225.072v208h-32v-208H464.536z M160.536,65.072l88-46.936l88,46.936v128h-88h-88V65.072z
				 M416.536,209.072v16h-16v16h16v192h-80v-176h-176v176h-80v-192h304v-16h-304v-16H416.536z M320.536,273.072v160h-64v-160
				H320.536z M240.536,273.072v160h-64v-160H240.536z M48.536,177.072h48v16h-32v16h-16V177.072z M32.536,225.072h32v208h-32
				V225.072z M480.536,481.072h-16v-16h-16v16h-16v-16h-16v16h-16v-16h-16v16h-16v-16h-16v16h-16v-16h-16v16h-16v-16h-16v16h-16v-16
				h-16v16h-16v-16h-16v16h-16v-16h-16v16h-16v-16h-16v16h-16v-16h-16v16h-16v-16h-16v16h-16v-16h-16v16h-16v-16h-16v16h-16v-32h464
				V481.072z"/>
			<path d="M320.536,121.072c0-39.704-32.296-72-72-72c-39.704,0-72,32.296-72,72s32.296,72,72,72S320.536,160.776,320.536,121.072z
				 M248.536,177.072c-30.872,0-56-25.128-56-56s25.128-56,56-56s56,25.128,56,56S279.408,177.072,248.536,177.072z"/>
			<polygon points="256.536,73.072 240.536,73.072 240.536,123.736 266.136,157.872 278.936,148.272 256.536,118.408 			"/>
		</g>
	</g>
</g>
</svg>